<!-- Generator: Adobe Illustrator 22.1.0, SVG Export Plug-In  -->
<svg version="1.0"
	 xmlns="http://www.w3.org/2000/svg" xmlns:xlink="http://www.w3.org/1999/xlink" xmlns:a="http://ns.adobe.com/AdobeSVGViewerExtensions/3.0/"
	 x="0px" y="0px" width="531.9px" height="313.5px" viewBox="0 0 531.9 313.5" style="enable-background:new 0 0 531.9 313.5;"
	 xml:space="preserve">
<style type="text/css">
	.st0{fill:#B2B2B2;}
	.st1{fill:#FFFFFF;}
	.st2{fill:#FFBC4D;}
	.st3{opacity:0.2;fill:#4E2A67;}
	.st4{fill:#768FD5;}
	.st5{fill:#CADBEE;}
	.st6{fill:#EAF2FA;}
	.st7{opacity:0.3;fill:#007CFF;}
	.st8{fill:#1A2E35;}
	.st9{fill:#007CFF;}
	.st10{fill:#FF3838;}
	.st11{opacity:0.3;}
	.st12{fill:#4D678E;}
</style>
<defs>
</defs>
<circle class="st0" cx="369.2" cy="35.6" r="3.8"/>
<circle class="st1" cx="433.4" cy="100.6" r="3.8"/>
<circle class="st0" cx="162.5" cy="186.9" r="3.8"/>
<circle class="st0" cx="438.5" cy="224.2" r="3.8"/>
<path class="st0" d="M275.9,2.2c0,1.2-1,2.2-2.2,2.2c-1.2,0-2.2-1-2.2-2.2c0-1.2,1-2.2,2.2-2.2C274.9,0,275.9,1,275.9,2.2z"/>
<circle class="st0" cx="117.6" cy="39" r="3.8"/>
<path class="st0" d="M225.1,222.3c0,1.1-0.9,1.9-1.9,1.9c-1.1,0-1.9-0.9-1.9-1.9c0-1.1,0.9-1.9,1.9-1.9
	C224.3,220.3,225.1,221.2,225.1,222.3z"/>
<path class="st0" d="M338.1,123.6c0,1.1-0.9,1.9-1.9,1.9c-1.1,0-1.9-0.9-1.9-1.9s0.9-1.9,1.9-1.9
	C337.2,121.7,338.1,122.6,338.1,123.6z"/>
<path class="st0" d="M381.6,104.4c0,1.1-0.9,1.9-1.9,1.9s-1.9-0.9-1.9-1.9c0-1.1,0.9-1.9,1.9-1.9S381.6,103.4,381.6,104.4z"/>
<circle class="st0" cx="283.5" cy="208.9" r="1.9"/>
<g>
	<path class="st2" d="M531.9,57c0,3.8-2.4,7-5.8,8.1c-0.8,0.3-1.7,0.4-2.7,0.4c-4.7,0-8.5-3.8-8.5-8.5c0-4.3,3.1-7.8,7.2-8.4
		c0.4-0.1,0.8-0.1,1.3-0.1C528.1,48.5,531.9,52.3,531.9,57z"/>
	<path class="st3" d="M526.1,65.1c-0.8,0.3-1.7,0.4-2.7,0.4c-4.7,0-8.5-3.8-8.5-8.5c0-4.3,3.1-7.8,7.2-8.4c-0.6,1.9-0.8,3.9-0.9,5.2
		C520.9,60,522.8,62.5,526.1,65.1z"/>
</g>
<g>
	<g>
		<g>
			<path class="st4" d="M74.9,297.7c7.6,0,15.1-3.4,18.7-9c2.3-3.4,4.9-10.7-2.9-20.3L90,269c5.5,6.8,6.5,13.7,2.9,19.3
				c-4.5,6.8-15,10.2-23.9,7.8c-9.2-2.5-14.8-10.5-15.3-21.9C51.8,235,31,223,15.8,214.2c-9.4-5.5-16.2-9.4-14.7-17.7
				c0.2-1.2,0.7-2,1.4-2.4c1.9-1.3,5.7-0.4,10.1,0.6c8.6,2,20.4,4.7,27.4-7.2l-0.8-0.5c-6.7,11.4-17.6,8.8-26.4,6.8
				c-4.6-1.1-8.5-2-10.8-0.5c-1,0.6-1.5,1.6-1.8,3c-1.6,8.9,5.8,13.2,15.2,18.7c15,8.7,35.5,20.6,37.4,59.2
				c0.6,11.8,6.4,20.1,16,22.7C70.7,297.5,72.8,297.7,74.9,297.7z"/>
		</g>
		<g>
			<g>
				<path class="st4" d="M49.2,176.9c-3.1-0.1-6.1,1-6.1,1s-4.9,8.4-5.5,10.3c0.2,1.9,3.4,5,3.4,5L49.2,176.9z"/>
			</g>
			<g>
				<g>
					<path class="st5" d="M34.7,217.5c1.8-2.3,3.7-4.7,5.1-7.3c0.4-0.6,0.7-1.3,1.1-2c0.2-0.4,0.4-0.8,0.6-1.1
						c0.2-0.3,0.5-0.8,0.5-1.2c0.5-5.6-1.4-9.8,0.5-14.3l7.3,2.9c0,0-0.6,8.1-2,12.9c-0.9,3-2.9,5.6-4.8,8c-0.6,0.8-1.2,1.5-1.8,2.3
						c-0.6,0.7-1.2,1.4-1.8,2.1c-0.9,1.1-1.2,2.1-0.5,3.4c0,0.1,0.1,0.1,0.1,0.2c0.2,0.3-0.7,0.7-1.2,0c-0.9-1.1-0.8-1.1-1.5-2.1
						c-0.5-0.6-1-1.2-1.5-1.8C34.3,218.8,34.2,218.1,34.7,217.5z"/>
				</g>
				<path class="st4" d="M36.5,215.2c1,1.2,3,2.7,3.9,3.4c-0.2,0.2-0.4,0.4-0.6,0.6c-1.8-1.2-3.2-2.7-3.8-3.3
					C36.1,215.6,36.3,215.4,36.5,215.2z"/>
				<path class="st4" d="M34.7,217.5C34.7,217.5,34.7,217.5,34.7,217.5c0.4,0.3,0.6,0.8,0.6,1.3c0,0.4,0,0.8-0.2,1
					c-0.1-0.2-0.3-0.3-0.4-0.5C34.3,218.8,34.2,218.1,34.7,217.5z"/>
			</g>
			<g>
				<g>
					<path class="st5" d="M50.9,182.2c0.8,1.1,1.7,2.2,2.8,3.2c0.6,0.5,1.2,0.9,2,1.3c0.4,0.2,0.8,0.3,1.2,0.5l0.3,0.1l0.1,0
						c0.1,0,0.1,0,0.2,0.1c0.1,0,0.3,0.1,0.4,0.1c0.5,0,0.8,0,1.1-0.1c0.6-0.2,0.9-0.4,1.3-0.6c0.4-0.2,0.7-0.4,1-0.6
						c0.6-0.4,1.1-0.9,1.6-1.4c1-0.9,1.9-1.9,2.7-3c0.4-0.5,0.3-1.2-0.2-1.6c-0.4-0.3-0.9-0.3-1.3,0l0,0c-1.1,0.7-2.1,1.4-3.1,2
						c-0.5,0.3-1,0.6-1.5,0.9c-0.2,0.1-0.5,0.2-0.7,0.3c-0.2,0.1-0.4,0.1-0.5,0.1c0,0,0,0,0.2,0c0,0,0.1,0,0.2,0c0,0,0.1,0,0.1,0
						c0,0,0,0,0,0l-0.1-0.1c-0.2-0.1-0.4-0.2-0.6-0.4c-0.4-0.3-0.7-0.6-1.1-0.9c-0.7-0.7-1.4-1.6-2.2-2.6l0,0
						c-0.8-1-2.2-1.1-3.1-0.4C50.5,179.9,50.3,181.3,50.9,182.2z"/>
				</g>
				<g>
					<path class="st5" d="M67.2,179.3l-0.5,0.9c0,0-0.4,1.2-1.2,1.4l-2.2-0.7l0.1-0.2c0,0,0,0,0,0c0.3-0.4,0.2-1.2,0.1-1.9
						c-0.1-0.7,0.3-0.7,0.5-0.5c0.1,0.1,0.3,0.4,0.4,0.7c0.1-0.1,0.2-0.3,0.3-0.4l0.7-0.7c0.3-0.3,0.7-0.3,1,0l0.5,0.5
						C67.4,178.6,67.4,179,67.2,179.3z"/>
				</g>
			</g>
			<g>
				<path class="st6" d="M47,176.1c2.1,0.5,4.9,1.7,6.8,2.9c0.7,0.4,1,1.2,0.9,2c-0.9,4.2-2.8,9.8-4.9,13.4l-9.8-4.1
					c-0.1-1.7,2.3-7.4,4.8-12.8C45.1,176.6,46,175.9,47,176.1z"/>
			</g>
			<path class="st7" d="M43.2,181l2-0.7c-0.4,1.1-2,2.6-3.1,3.4C42.4,182.9,42.8,182,43.2,181z"/>
			<g>
				<path class="st5" d="M47.7,171.7c0.8-1.6,2.6-2.3,4.7-2.2c1.8,0.1,3.4,2,3.2,2.9c-0.2,1-1.7,1.4-2,1.7l1.2,0.9
					c0.6,0.4,0.7,1.3,0.3,1.9c-0.5,0.7-1.2,1.3-1.6,1.8c-3.4-0.1-5.9-1.4-6.8-2.6C46.9,174.6,46.8,173.2,47.7,171.7z"/>
			</g>
			<path class="st8" d="M49.3,172.7c-0.7,1.7,0.2,3.7,1.9,4.4c1.7,0.7,3.7-0.2,4.4-1.9c0.7-1.7-0.2-3.7-1.9-4.4
				C52,170.1,50,170.9,49.3,172.7z"/>
			<g>
				<g>
					<path class="st6" d="M20.4,212.8c0-1.5,0.1-1.3,0.2-2.6c0-0.8,0-1.6,0-2.3c0-0.7,0.5-1.3,1.2-1.5c0.6-0.1,1.2-0.2,1.8-0.4
						c0.8-0.2,1.5-0.3,2.3-0.6c0.6-0.2,1.2-0.4,1.7-0.6c0.6-0.2,1.2-0.5,1.8-0.7c0.7-0.3,1.4-0.6,2.1-1c0.8-0.4,1.5-0.7,2.3-1.1
						c2.9-4.9,3-8.1,6.1-11.8l6.8,3.1c0,0-5,8.8-8.3,12.5c-1.9,2.1-5,3.1-7.7,3.8c-2,0.5-4,0.9-5.9,1.3c-0.8,0.1-1.6,0.2-2.3,0.7
						c-0.5,0.4-0.8,0.9-1,1.5c0,0.1-0.1,0.2-0.1,0.4C21.3,214,20.4,213.7,20.4,212.8z"/>
				</g>
				<path class="st4" d="M23.8,206c0.3-0.1,0.5-0.1,0.8-0.2c0,1.5,0.7,4.2,1,5c-0.3,0.1-0.6,0.1-0.8,0.2
					C24,208.9,23.8,206.7,23.8,206z"/>
				<path class="st4" d="M20.6,207.9c0-0.7,0.5-1.3,1.2-1.5c0.1,0,0.3-0.1,0.4-0.1c0,0.4-0.3,0.9-0.7,1.3c-0.3,0.3-0.6,0.4-0.9,0.5
					C20.6,208.1,20.6,208,20.6,207.9z"/>
			</g>
			<path class="st1" d="M50,172.7c-0.2,0.7,0.6,1.4,1.2,0.8c0.5-0.5,1.2-1.3,1.8-1.6c0.6-0.4-0.2-1.1-1.2-0.8
				C50.9,171.3,50.1,172,50,172.7z"/>
			<g>
				<path class="st9" d="M49.9,194.2c0.3,0.1-0.3,0.6-0.3,0.6s-6.2-2.1-10-4.3c0-0.5,0.3-0.7,0.3-0.7S44.6,192.2,49.9,194.2z"/>
				<path class="st4" d="M49.9,194.2c0.3,0.1-0.3,0.6-0.3,0.6s-6.2-2.1-10-4.3c0-0.5,0.3-0.7,0.3-0.7S44.6,192.2,49.9,194.2z"/>
			</g>
			<g>
				<g>
					<path class="st6" d="M45.3,175.8c-1.2,0.6-2.4,1.3-3.5,2c-0.6,0.4-1.1,0.7-1.7,1.1c-0.6,0.4-1.1,0.8-1.7,1.3l-0.2,0.2l-0.3,0.2
						c-0.2,0.2-0.3,0.3-0.5,0.5c-0.1,0.2-0.3,0.3-0.4,0.5c-0.1,0.2-0.2,0.3-0.3,0.4c-0.4,0.6-0.8,1.2-1.2,1.8
						c-0.7,1.2-1.3,2.4-1.8,3.7c-0.2,0.6,0.1,1.2,0.7,1.4c0.4,0.2,0.9,0,1.2-0.3l0,0c0.9-0.9,1.8-1.9,2.6-2.9
						c0.8-0.9,1.7-1.9,2.5-2.3c1-0.6,2.1-1.3,3.3-1.9l3.4-1.9l0,0c1.1-0.6,1.5-2,0.9-3C47.7,175.7,46.4,175.3,45.3,175.8z"/>
				</g>
				<g>
					<path class="st6" d="M32.7,189.7l0.4-0.9c0,0,0.2-1.2,1-1.6l2.2,0.4l-0.1,0.2c0,0,0,0,0,0c-0.2,0.5-0.1,1.3,0.2,1.9
						c0.2,0.7-0.1,0.7-0.4,0.6c-0.2-0.1-0.3-0.4-0.5-0.7c-0.1,0.2-0.2,0.3-0.3,0.5l-0.5,0.8c-0.2,0.3-0.7,0.4-1,0.2l-0.6-0.4
						C32.7,190.4,32.6,190,32.7,189.7z"/>
				</g>
			</g>
			<g>
				<g>
					<path class="st7" d="M47.2,180.9l0.5,0l3.3,8.1c-0.2,0-0.4,0-0.5,0c0,0-4.3-1.6-5.7-2.2C45.8,184.9,47.2,180.9,47.2,180.9z"/>
					<path class="st1" d="M53.3,183.1c-0.2,1.5-1.3,4.5-2.2,6c-1.6-0.6-4.3-1.6-5.7-2.2c0.9-1.8,1.8-4.4,2.3-5.8
						C49.1,181.1,52.2,182.2,53.3,183.1z"/>
				</g>
				<path class="st7" d="M50,184.8c0.2,0.6,0.8,1,1.4,0.8c0.6-0.2,1-0.8,0.8-1.4c-0.2-0.6-0.8-1-1.4-0.8
					C50.1,183.5,49.8,184.2,50,184.8z"/>
				<path class="st4" d="M49.1,183.3c0.1,0.2,0.3,0.3,0.5,0.3c0.2-0.1,0.3-0.3,0.3-0.5c-0.1-0.2-0.3-0.3-0.5-0.3
					C49.2,182.8,49.1,183.1,49.1,183.3z"/>
				<path class="st4" d="M48.1,182.9c0.1,0.2,0.3,0.3,0.5,0.3c0.2-0.1,0.3-0.3,0.3-0.5c-0.1-0.2-0.3-0.3-0.5-0.3
					C48.2,182.5,48.1,182.7,48.1,182.9z"/>
				<polygon class="st4" points="46.7,186.3 50.9,188 51.1,187.2 47,185.5 				"/>
			</g>
		</g>
	</g>
	<g>
		<g>
			<g>
				<path class="st4" d="M129.1,271.8c-2.5,2.5-7.8,7.8-7.8,7.8L99.5,259C107,256.1,121.6,264.3,129.1,271.8z"/>
				<path class="st4" d="M101.9,299c2.5-2.5,7.8-7.8,7.8-7.8l-20.6-21.8C86.3,276.8,94.4,291.5,101.9,299z"/>
				<g>
					<path class="st6" d="M72.1,249.8l-8.5-16.4l16.4,8.5c5.3,2.7,10.1,6.2,14.5,10.2l28,26.3l-13.7,13.7l-26.3-28
						C78.3,260,74.8,255.1,72.1,249.8z"/>
				</g>
				<circle class="st1" cx="89.5" cy="259.4" r="5.7"/>
				<circle class="st10" cx="89.5" cy="259.4" r="3.7"/>
				<polygon class="st7" points="104,287.3 117.4,273.8 106.4,263.5 93.6,276.3 				"/>
				<g class="st11">
					<path class="st12" d="M126.1,284.1c10.1,0.8,13.4,7.3,14.5,15.8c0.6,4.4,0.8,8.8,4.5,11.3c1,0.7,0.5,2.3-0.7,2.3
						c-13.5-0.4-19.8-7-20.6-9.8c0.3,1.8,0.7,3.1,1.1,4.2c0.5,1.1-0.8,2.2-1.8,1.5c-3.8-2.4-8.6-6.8-8.9-13.8
						C117,291.7,126.1,284.1,126.1,284.1z"/>
				</g>
				<polygon class="st4" points="112.7,298.6 128.8,282.5 120.2,280.7 110.8,290.1 				"/>
			</g>
		</g>
	</g>
</g>
</svg>
